HIERARCHY
ROOT Hips
{
	OFFSET 0.000000 0.000000 0.000000
	CHANNELS 6 Xposition Yposition Zposition Xrotation Yrotation Zrotation
	JOINT LeftUpLeg_virtual
	{
		OFFSET 0.000000 0.000000 0.000000
		CHANNELS 3 Xrotation Yrotation Zrotation
		JOINT LeftUpLeg
		{
			OFFSET 11.394100 -6.187798 -0.413800
			CHANNELS 3 Xrotation Yrotation Zrotation
			JOINT LeftLeg
			{
				OFFSET 0.430247 -32.302673 3.732800
				CHANNELS 3 Xrotation Yrotation Zrotation
				JOINT LeftFoot
				{
					OFFSET -0.430247 -48.264931 -6.423300
					CHANNELS 3 Xrotation Yrotation Zrotation
					JOINT LeftToeBase
					{
						OFFSET 4.230900 -16.068199 23.438400
						CHANNELS 3 Xrotation Yrotation Zrotation
						JOINT LeftToe_End
						{
							OFFSET 4.510700 0.695400 19.974600
							CHANNELS 3 Xrotation Yrotation Zrotation
							End Site
							{
								OFFSET 0 0 0
							}
						}
					}
				}
			}
		}
	}
	JOINT RightUpLeg_virtual
	{
		OFFSET 0.000000 0.000000 0.000000
		CHANNELS 3 Xrotation Yrotation Zrotation
		JOINT RightUpLeg
		{
			OFFSET -11.333700 -6.187798 -0.413800
			CHANNELS 3 Xrotation Yrotation Zrotation
			JOINT RightLeg
			{
				OFFSET -0.430392 -32.302628 3.733000
				CHANNELS 3 Xrotation Yrotation Zrotation
				JOINT RightFoot
				{
					OFFSET 0.430392 -48.264973 -6.423500
					CHANNELS 3 Xrotation Yrotation Zrotation
					JOINT RightToeBase
					{
						OFFSET -4.230900 -16.068199 23.438400
						CHANNELS 3 Xrotation Yrotation Zrotation
						JOINT RightToe_End
						{
							OFFSET -4.510700 0.695400 19.974600
							CHANNELS 3 Xrotation Yrotation Zrotation
							End Site
							{
								OFFSET 0 0 0
							}
						}
					}
				}
			}
		}
	}
	JOINT Spine_virtual
	{
		OFFSET 0.000000 0.000000 0.000000
		CHANNELS 3 Xrotation Yrotation Zrotation
		JOINT Spine
		{
			OFFSET -0.002400 12.777504 0.315300
			CHANNELS 3 Xrotation Yrotation Zrotation
			JOINT Spine1
			{
				OFFSET -0.002067 5.816869 0.032633
				CHANNELS 3 Xrotation Yrotation Zrotation
				JOINT Spine1_split
				{
					OFFSET -0.002067 5.816869 0.032633
					CHANNELS 3 Xrotation Yrotation Zrotation
					JOINT Spine2
					{
						OFFSET -0.002067 5.816869 0.032633
						CHANNELS 3 Xrotation Yrotation Zrotation
						JOINT Neck_virtual
						{
							OFFSET 0.000000 0.000000 0.000000
							CHANNELS 3 Xrotation Yrotation Zrotation
							JOINT Neck
							{
								OFFSET -0.003700 21.199493 -0.826900
								CHANNELS 3 Xrotation Yrotation Zrotation
								JOINT Head
								{
									OFFSET 0.000000 20.442200 4.834800
									CHANNELS 3 Xrotation Yrotation Zrotation
									JOINT HeadTop_End
									{
										OFFSET 0.000000 34.668396 4.968400
										CHANNELS 3 Xrotation Yrotation Zrotation
										End Site
										{
											OFFSET 0 0 0
										}
									}
								}
							}
						}
						JOINT LeftShoulder_virtual
						{
							OFFSET 0.000000 0.000000 0.000000
							CHANNELS 3 Xrotation Yrotation Zrotation
							JOINT LeftShoulder
							{
								OFFSET 3.288150 8.794197 -1.372250
								CHANNELS 3 Xrotation Yrotation Zrotation
								JOINT LeftShoulder_split
								{
									OFFSET 3.288150 8.794197 -1.372250
									CHANNELS 3 Xrotation Yrotation Zrotation
									JOINT LeftArm
									{
										OFFSET 11.953299 -2.279007 -0.146200
										CHANNELS 3 Xrotation Yrotation Zrotation
										JOINT LeftForeArm
										{
											OFFSET 18.448900 0.000000 0.000000
											CHANNELS 3 Xrotation Yrotation Zrotation
											JOINT LeftHand
											{
												OFFSET 29.527798 0.000000 0.000000
												CHANNELS 3 Xrotation Yrotation Zrotation
												End Site
												{
													OFFSET 0 0 0
												}
											}
										}
									}
								}
							}
						}
						JOINT RightShoulder_virtual
						{
							OFFSET 0.000000 0.000000 0.000000
							CHANNELS 3 Xrotation Yrotation Zrotation
							JOINT RightShoulder
							{
								OFFSET -3.249400 8.794197 -1.372250
								CHANNELS 3 Xrotation Yrotation Zrotation
								JOINT RightShoulder_split
								{
									OFFSET -3.249400 8.794197 -1.372250
									CHANNELS 3 Xrotation Yrotation Zrotation
									JOINT RightArm
									{
										OFFSET -11.953299 -2.279007 -0.146200
										CHANNELS 3 Xrotation Yrotation Zrotation
										JOINT RightForeArm
										{
											OFFSET -18.448900 0.000000 0.000000
											CHANNELS 3 Xrotation Yrotation Zrotation
											JOINT RightHand
											{
												OFFSET -29.527802 0.000000 0.000000
												CHANNELS 3 Xrotation Yrotation Zrotation
												End Site
												{
													OFFSET 0 0 0
												}
											}
										}
									}
								}
							}
						}
					}
				}
			}
		}
	}
}
MOTION
Frames: 4
Frame Time: 0.03333333
13.485712 43.381893 406.027008 0.000000 0.000000 0.000000 55.663378 -41.483895 91.224853 -64.014391 -5.705857 13.611505 26.750948 1.532366 4.606922 4.624663 -2.373741 -8.624098 1.248180 4.669283 -16.472056 0.000000 0.000000 0.000000 54.308825 -45.966388 96.044474 -81.578106 -35.102419 -40.658412 109.527547 17.941729 0.397086 20.934656 7.564814 21.192858 11.312560 -0.135185 10.270679 0.000000 0.000000 0.000000 57.895347 -49.168042 92.196523 9.316852 -6.150631 1.137354 22.274784 -11.804253 -0.037374 -0.618276 4.168689 -1.451115 0.000000 0.000000 0.000000 17.120274 -12.713601 -0.081184 13.572207 4.487308 -5.532222 -10.308772 24.129843 -20.435875 0.000000 0.000000 0.000000 20.619204 -12.651068 1.147574 1.024168 1.166135 -19.523551 -3.748846 0.475112 2.539232 5.436173 2.311790 -57.937162 28.996608 -15.762161 -4.655993 0.000000 0.000000 0.000000 19.931870 -12.898707 0.133313 3.490901 23.313401 4.072839 2.886574 4.552882 6.801455 -31.635165 -8.580972 -0.313967 -27.478951 19.062336 3.742895 0.000000 0.000000 0.000000 
13.670906 43.216850 419.322144 0.000000 0.000000 0.000000 54.586462 -40.404503 86.175903 -72.961460 -8.237577 16.044454 28.882958 1.516801 0.811002 6.324308 -2.276912 -12.053289 1.964603 4.670833 -18.206778 0.000000 0.000000 0.000000 51.702876 -44.080566 89.860510 -88.134651 -31.683707 -55.024666 110.077644 21.189113 0.183674 27.750582 10.329030 22.280374 12.387781 -0.736109 10.919278 0.000000 0.000000 0.000000 55.512752 -48.903222 86.098073 10.039798 -5.443613 0.999346 22.037079 -9.784281 -0.185341 -1.353575 3.961013 -0.997502 0.000000 0.000000 0.000000 17.060438 -10.567471 -0.464738 10.749674 4.658089 -3.715757 -14.278037 24.004073 -16.645262 0.000000 0.000000 0.000000 20.062777 -10.494511 0.613793 0.617467 0.518603 -20.001357 -2.994942 0.897806 3.224355 8.757128 3.929164 -57.952605 30.759935 -16.253714 -5.165448 0.000000 0.000000 0.000000 19.668158 -10.678788 -0.116354 2.741572 22.878617 5.155221 3.147535 4.171479 7.515442 -33.890340 -11.618246 2.764687 -28.179653 17.706792 2.391112 0.000000 0.000000 0.000000 
14.039209 42.197289 431.131592 0.000000 0.000000 0.000000 51.431973 -39.790947 78.974452 -85.459750 -9.996562 18.229186 34.605181 1.849545 -3.438534 10.333951 -3.025835 -12.651261 2.265657 4.857090 -19.086077 0.000000 0.000000 0.000000 47.835629 -42.804136 80.979098 -89.078692 -29.746645 -64.012745 110.576869 23.063418 -0.282771 31.374559 10.235453 22.174081 14.662873 -0.939312 11.488136 0.000000 0.000000 0.000000 50.804750 -48.590963 77.701175 10.565463 -4.141647 0.316202 21.206585 -7.432308 -0.618729 -1.582861 3.401630 0.276604 0.000000 0.000000 0.000000 16.695569 -8.121407 -1.157804 7.154745 4.721834 -1.688497 -17.882216 23.060148 -12.670578 0.000000 0.000000 0.000000 19.063664 -8.043433 -0.347439 0.221354 0.136314 -20.302357 -1.311808 -0.310549 3.348846 12.522858 5.303338 -55.753120 32.361409 -18.091482 -4.896122 0.000000 0.000000 0.000000 19.078738 -8.056294 -0.693119 1.954307 21.577766 6.831086 4.294569 4.244290 7.344387 -33.750348 -16.887238 10.909672 -28.469601 20.632869 2.404047 0.000000 0.000000 0.000000 
14.638539 40.391186 441.892700 0.000000 0.000000 0.000000 46.586354 -39.806554 69.710885 -100.087932 -10.756992 20.320211 44.495793 2.225820 -7.391548 15.449623 -4.189106 -10.243174 1.751616 5.261859 -18.853404 0.000000 0.000000 0.000000 42.751657 -42.534180 70.126317 -84.722541 -31.141670 -67.133397 112.124905 23.375216 -1.060039 31.085813 7.403235 21.247112 18.104074 -0.765789 12.005768 0.000000 0.000000 0.000000 44.420757 -47.809330 67.671206 10.740138 -2.607427 -0.675272 19.940466 -5.263163 -1.197953 -1.219033 2.971932 1.546698 0.000000 0.000000 0.000000 16.106524 -5.875287 -1.965140 3.351314 5.025794 0.060013 -20.484991 22.304712 -9.142961 0.000000 0.000000 0.000000 17.862664 -5.823042 -1.502766 -0.030703 0.113060 -20.082126 1.016138 -2.214863 2.931121 15.720432 6.555697 -50.713939 33.438946 -20.976107 -4.007644 0.000000 0.000000 0.000000 18.238584 -5.563481 -1.415890 1.321033 19.756537 8.640950 6.297118 5.004264 6.890564 -28.936236 -22.975740 24.310535 -28.470725 27.985170 3.874808 0.000000 0.000000 0.000000 
